<svg xmlns="http://www.w3.org/2000/svg" fill="none" viewBox="0 0 18 18">
  <path stroke="#8F8F8F" stroke-width="1.5" d="M.75 8.35c0-3.017 0-4.525.938-5.462.937-.937 2.445-.938 5.462-.938h3.2c3.017 0 4.526 0 5.462.938.937.937.938 2.445.938 5.462v1.6c0 3.017 0 4.526-.938 5.463-.937.936-2.445.937-5.462.937h-3.2c-3.017 0-4.526 0-5.462-.937C.75 14.475.75 12.967.75 9.95v-1.6Z"/>
  <path stroke="#8F8F8F" stroke-linecap="round" stroke-width="1.5" d="M4.75 1.95V.75m8 1.2V.75m-11.6 5.2h15.2"/>
  <path stroke="#8F8F8F" d="M4.75 12.05a.3.3 0 1 1 0 .6.3.3 0 0 1 0-.6Zm4 0a.3.3 0 1 1 0 .6.3.3 0 0 1 0-.6Zm4 0a.3.3 0 1 1 0 .6.3.3 0 0 1 0-.6Zm-8-3.2a.3.3 0 1 1 0 .6.3.3 0 0 1 0-.6Zm4 0a.3.3 0 1 1 0 .6.3.3 0 0 1 0-.6Zm4 0a.3.3 0 1 1-.001.6.3.3 0 0 1 0-.6Z"/>
</svg>
