<svg xmlns="http://www.w3.org/2000/svg" fill="none" viewBox="0 0 20 20">
  <path fill="#424242" d="M11.028 0c1.125.003 1.696.009 2.189.023l.194.007c.224.007.445.017.712.029 1.064.05 1.79.215 2.427.458.66.25 1.216.588 1.772 1.134a4.814 4.814 0 0 1 1.153 1.743c.247.627.415 1.341.465 2.39.012.261.022.479.03.7l.006.19c.015.485.02 1.047.023 2.154V10.85c.003.718-.005 1.436-.022 2.153l-.006.191c-.008.221-.018.439-.03.7-.05 1.048-.22 1.762-.466 2.39a4.813 4.813 0 0 1-1.153 1.743c-.5.5-1.105.888-1.772 1.134-.637.243-1.363.409-2.427.458l-.712.03-.194.005c-.493.014-1.064.021-2.189.023H8.973c-.73.003-1.46-.004-2.189-.022l-.194-.006a65.038 65.038 0 0 1-.712-.03c-1.064-.05-1.79-.215-2.428-.458a4.908 4.908 0 0 1-1.77-1.134 4.814 4.814 0 0 1-1.154-1.744c-.247-.626-.415-1.34-.465-2.388l-.03-.701-.005-.19A76.484 76.484 0 0 1 0 10.85V8.828a76.48 76.48 0 0 1 .022-2.153l.007-.191c.008-.221.018-.439.03-.7.05-1.049.218-1.762.465-2.39A4.814 4.814 0 0 1 1.68 1.651c.5-.5 1.104-.887 1.77-1.134C4.088.274 4.813.108 5.878.059c.266-.012.488-.022.712-.03l.194-.005C7.514.006 8.243-.001 8.972 0L11.028 0ZM10 4.92a5.041 5.041 0 0 0-3.535 1.44A4.88 4.88 0 0 0 5 9.84a4.88 4.88 0 0 0 1.465 3.479A5.042 5.042 0 0 0 10 14.758a5.042 5.042 0 0 0 3.535-1.44A4.88 4.88 0 0 0 15 9.839a4.88 4.88 0 0 0-1.465-3.479A5.041 5.041 0 0 0 10 4.92Zm0 1.967c.394 0 .784.076 1.148.225.364.148.695.365.973.64a2.912 2.912 0 0 1 0 4.174c-.277.274-.608.491-.972.64a3.04 3.04 0 0 1-3.27-.64 2.928 2.928 0 0 1-.878-2.087c0-.783.316-1.534.879-2.087A3.025 3.025 0 0 1 10 6.887m5.25-3.443c-.332 0-.65.13-.884.36a1.22 1.22 0 0 0 0 1.74 1.26 1.26 0 0 0 1.768 0 1.22 1.22 0 0 0 0-1.74 1.26 1.26 0 0 0-.884-.36Z"/>
</svg>
