<svg xmlns="http://www.w3.org/2000/svg" fill="none" viewBox="0 0 25 32">
  <path stroke="#fff" stroke-width="1.5" d="M23.486 7.695c1.224 4.955-1.925 10.014-7.032 11.298a9.846 9.846 0 0 1-1.912.287L8.86 28.414a3.31 3.31 0 0 1-2.002 1.465L3.59 30.7c-.425.107-.876.04-1.252-.189a1.668 1.668 0 0 1-.753-1.026l-.736-2.982a3.369 3.369 0 0 1 .407-2.583l5.223-8.395a8.884 8.884 0 0 1-1.489-3.177c-1.224-4.955 1.923-10.014 7.03-11.3C17.13-.236 22.262 2.743 23.487 7.696Zm-8.533 4.994a3.297 3.297 0 0 0 2.067-1.512 3.357 3.357 0 0 0 .386-2.546 3.351 3.351 0 0 0-1.525-2.066 3.29 3.29 0 0 0-4.534 1.172 3.365 3.365 0 0 0-.363 2.509c.21.852.745 1.586 1.488 2.043.742.457 1.634.601 2.48.4Z"/>
</svg>
