<svg xmlns="http://www.w3.org/2000/svg" fill="none" viewBox="0 0 20 20">
  <path fill="#424242" fill-rule="evenodd" d="M14.103 19.678a5.947 5.947 0 0 0 4.17-1.7A5.756 5.756 0 0 0 20 13.877V5.803A5.756 5.756 0 0 0 18.273 1.7a5.947 5.947 0 0 0-4.17-1.7H5.897a5.947 5.947 0 0 0-4.17 1.7A5.756 5.756 0 0 0 0 5.803v8.073c0 1.539.621 3.015 1.727 4.103a5.947 5.947 0 0 0 4.17 1.7h8.206ZM11.755 3.545a.76.76 0 0 0-.332-.407.78.78 0 0 0-.983.157.75.75 0 0 0-.184.49v9.082c0 .449-.135.888-.389 1.261a2.3 2.3 0 0 1-1.035.836 2.343 2.343 0 0 1-1.333.13 2.32 2.32 0 0 1-1.182-.622 2.26 2.26 0 0 1-.632-1.162 2.237 2.237 0 0 1 .132-1.312c.174-.415.47-.77.85-1.02.38-.249.825-.382 1.282-.382.204 0 .4-.08.544-.222a.751.751 0 0 0 0-1.07.776.776 0 0 0-.544-.222c-.761 0-1.505.222-2.137.638a3.798 3.798 0 0 0-1.417 1.698 3.727 3.727 0 0 0-.219 2.187 3.766 3.766 0 0 0 1.053 1.938c.538.529 1.223.89 1.97 1.035.745.146 1.519.071 2.222-.215a3.833 3.833 0 0 0 1.726-1.394 3.741 3.741 0 0 0 .648-2.102V6.265c.787.718 1.894 1.304 3.333 1.304.204 0 .4-.08.544-.222a.75.75 0 0 0 0-1.07.776.776 0 0 0-.544-.222c-.997 0-1.755-.404-2.317-.928-.574-.536-.92-1.183-1.056-1.582Z" clip-rule="evenodd"/>
</svg>
